<svg viewBox="0 0 200 200" xmlns="http://www.w3.org/2000/svg">
  <path fill="#0F1729" d="M37.2,-59.2C50.9,-56.6,66.3,-51.9,77,-41.7C87.7,-31.5,93.5,-15.7,88.2,-3.1C82.9,9.6,66.5,19.3,55.7,29.3C45,39.4,40,50,31.6,57.1C23.3,64.2,11.6,67.8,1.1,65.9C-9.4,64,-18.9,56.5,-31.9,52.1C-45,47.8,-61.7,46.5,-66.8,38.4C-71.9,30.2,-65.4,15.1,-66.4,-0.6C-67.5,-16.3,-76,-32.6,-73.4,-45C-70.8,-57.4,-56.9,-66.1,-42.8,-68.4C-28.7,-70.6,-14.4,-66.6,-1.3,-64.4C11.8,-62.2,23.6,-61.7,37.2,-59.2Z" transform="translate(100 100)" />
</svg>
